<?xml version="1.0" standalone="no"?>
<!DOCTYPE svg PUBLIC "-//W3C//DTD SVG 20010904//EN"
 "http://www.w3.org/TR/2001/REC-SVG-20010904/DTD/svg10.dtd">
<svg version="1.0" xmlns="http://www.w3.org/2000/svg"
 width="1029.000000pt" height="1028.000000pt" viewBox="0 0 1029.000000 1028.000000"
 preserveAspectRatio="xMidYMid meet">

<g transform="translate(0.000000,1028.000000) scale(0.100000,-0.100000)"
fill="#000000" stroke="none">
<path d="M5000 10273 c-1197 -36 -2308 -469 -3220 -1252 -135 -116 -416 -398
-526 -526 -648 -761 -1057 -1658 -1193 -2615 -36 -253 -42 -338 -48 -637 -6
-311 3 -503 38 -773 142 -1105 657 -2154 1447 -2948 408 -409 840 -721 1354
-978 881 -441 1872 -617 2858 -509 1986 219 3672 1581 4305 3480 423 1270 334
2660 -249 3860 -192 395 -409 730 -697 1076 -131 158 -437 464 -599 601 -802
675 -1742 1080 -2770 1193 -129 14 -561 38 -600 33 -8 -1 -53 -3 -100 -5z
m596 -38 c1048 -94 2009 -492 2834 -1175 149 -123 503 -474 619 -615 796 -959
1210 -2095 1211 -3320 0 -138 -23 -486 -41 -620 -29 -223 -94 -558 -133 -685
-8 -25 -27 -89 -42 -143 l-28 -97 -165 162 c-180 179 -167 156 32 -54 l127
-136 -50 -138 c-55 -149 -71 -189 -158 -384 -144 -325 -357 -683 -571 -962
l-84 -109 -95 93 -96 93 71 -80 c39 -44 80 -88 92 -99 l21 -19 -30 -36 c-16
-20 -45 -54 -64 -76 l-35 -40 -277 280 c-231 234 -245 247 -83 76 107 -112
230 -242 273 -288 l79 -84 -44 -47 c-111 -118 -134 -142 -140 -142 -4 0 -21
14 -39 30 -46 43 -51 37 -7 -8 44 -45 37 -66 -7 -23 -17 17 -35 31 -41 31 -5
1 -35 25 -65 53 -206 195 -209 191 -12 -16 61 -65 112 -121 112 -126 0 -4 -11
-18 -25 -31 l-25 -24 -32 30 -32 29 28 -34 27 -34 -27 -28 c-21 -22 -30 -26
-41 -17 -11 8 -12 7 -7 -6 7 -18 -21 -46 -166 -170 -234 -200 -561 -427 -828
-576 l-42 -24 -67 65 -67 64 57 -67 c31 -36 57 -68 57 -71 0 -3 -10 -7 -22
-11 -17 -4 -32 3 -58 27 l-35 32 34 -37 33 -36 -33 -18 c-52 -28 -230 -114
-269 -131 -370 -157 -650 -248 -1019 -328 l-75 -16 -95 93 c-53 51 -68 64 -33
28 73 -77 83 -104 15 -40 -43 40 -42 39 6 -12 30 -31 58 -55 62 -52 4 2 11 -1
15 -8 4 -7 4 -10 -1 -6 -4 4 -14 1 -22 -7 -8 -8 -31 -15 -51 -15 -34 0 -47 10
-161 124 l-123 124 60 7 c111 13 200 95 239 220 21 71 25 251 5 304 -6 19 -10
36 -8 39 8 8 170 52 180 49 5 -2 -22 -11 -60 -21 -38 -10 -73 -22 -77 -26 -7
-6 114 -464 125 -475 3 -4 160 33 165 39 2 2 -114 420 -132 477 -4 13 4 19 39
28 55 14 103 14 111 1 13 -21 -10 -84 -52 -141 -41 -56 -43 -62 -30 -82 26
-40 209 -218 275 -268 74 -56 59 -60 139 37 l43 52 -58 43 c-64 48 -192 168
-192 180 0 4 13 28 30 52 16 24 32 63 36 86 l7 43 34 -63 c44 -84 104 -143
183 -182 81 -40 198 -49 280 -22 l51 17 -5 39 c-3 21 -9 56 -12 78 l-5 39 -47
-15 c-88 -27 -188 1 -249 71 -43 48 -58 97 -43 140 14 45 34 61 111 92 35 14
68 29 73 34 10 10 -71 130 -88 130 -6 0 -47 -14 -91 -32 -100 -40 -174 -109
-194 -179 l-13 -45 -37 37 c-28 28 -48 39 -84 44 -50 8 -63 5 -292 -59 l-120
-33 -5 -79 -5 -79 -23 32 c-12 17 -45 43 -74 57 -44 22 -65 26 -137 26 -88 0
-163 -15 -217 -43 -34 -18 -104 -91 -104 -109 0 -24 -17 8 -30 55 l-13 48
-193 -2 c-106 -1 -197 2 -202 5 -6 4 -7 -6 -2 -27 4 -18 8 -94 8 -168 5 -392
18 -569 44 -569 4 0 39 21 77 47 l68 48 -5 128 -5 127 49 0 c27 0 72 3 100 6
l51 6 11 63 c7 34 12 67 12 74 0 7 -28 11 -82 11 -79 0 -83 1 -115 32 -42 41
-42 59 0 59 17 0 73 2 122 5 l90 6 1 -54 c1 -83 34 -196 77 -265 37 -61 111
-136 152 -155 11 -5 30 -24 42 -43 12 -19 72 -78 132 -132 108 -97 109 -98 82
-106 -25 -8 -33 -3 -97 65 -38 40 -127 132 -199 203 -71 72 -99 97 -60 55 38
-41 124 -130 190 -198 96 -99 117 -124 105 -132 -29 -18 -46 -10 -110 56 -36
36 -78 75 -95 86 -16 12 8 -17 53 -64 67 -68 80 -87 67 -92 -33 -12 -72 -6
-91 15 -10 12 -41 40 -69 62 l-50 41 53 -55 c28 -30 52 -60 52 -66 0 -11 -43
-16 -243 -29 -87 -6 -100 -4 -119 12 -12 11 -18 13 -14 6 4 -7 2 -14 -6 -17
-53 -18 -461 -9 -688 15 -497 54 -958 169 -1405 350 -1413 573 -2507 1764
-2958 3220 -95 304 -166 649 -202 970 -22 194 -31 699 -16 905 64 893 347
1728 836 2465 388 585 884 1079 1460 1455 77 51 155 100 173 111 l32 18 87
-84 87 -85 -77 84 c-42 46 -77 88 -77 92 0 4 59 40 131 80 630 345 1365 562
2064 609 88 6 180 12 205 14 83 7 474 -5 636 -19z m3184 -8678 c0 -6 -11 0
-25 13 -14 13 -25 28 -25 33 0 6 11 0 25 -13 14 -13 25 -28 25 -33z m-2956
-688 c39 -18 50 -58 43 -163 -8 -146 -45 -205 -109 -174 -56 26 -123 180 -116
265 2 30 10 42 37 60 38 25 103 31 145 12z m-584 -104 l23 -25 -26 0 c-22 0
-27 5 -27 25 0 14 1 25 3 25 2 0 14 -11 27 -25z"/>
<path d="M4965 10070 c10 -11 20 -20 23 -20 3 0 -3 9 -13 20 -10 11 -20 20
-23 20 -3 0 3 -9 13 -20z"/>
<path d="M4695 9914 c-27 -8 -136 -27 -242 -41 -136 -19 -199 -32 -215 -45
-23 -17 -22 -18 33 -18 l56 0 6 -37 c6 -41 25 -311 30 -431 l3 -73 -43 -12
c-24 -6 -53 -21 -64 -33 l-20 -21 48 8 c26 5 119 18 207 29 87 11 165 25 172
31 30 25 13 31 -65 24 l-79 -7 -6 74 c-4 40 -9 98 -12 129 l-6 57 69 11 c110
19 121 22 134 37 11 13 -1 14 -93 8 l-105 -7 -6 33 c-4 18 -7 72 -7 120 l0 88
66 7 c80 8 116 -4 145 -52 l21 -34 39 52 c21 29 39 56 39 59 0 11 -41 60 -48
59 -4 -1 -29 -8 -57 -15z"/>
<path d="M6140 9831 c-22 -6 -19 -9 28 -28 l53 -22 -6 -78 c-8 -91 -53 -478
-60 -509 -4 -20 0 -22 40 -26 25 -2 52 -1 59 2 8 3 43 39 77 80 34 41 105 122
158 179 75 82 97 100 99 84 3 -22 -35 -413 -44 -450 -6 -22 -4 -23 56 -23 l63
0 76 73 c42 39 131 114 198 165 163 124 196 168 173 236 -19 57 -40 69 -110
61 l-61 -7 8 -32 c26 -104 -6 -175 -137 -298 -52 -50 -96 -85 -98 -80 -3 10
32 382 44 469 l6 41 -43 7 c-59 9 -80 -1 -126 -60 -22 -27 -73 -86 -114 -130
-41 -44 -93 -102 -116 -129 -24 -27 -43 -45 -43 -41 0 4 6 49 14 99 8 50 20
127 26 171 19 136 21 144 35 139 7 -3 25 1 40 9 l27 14 -61 22 c-69 25 -222
72 -230 70 -3 -1 -17 -4 -31 -8z"/>
<path d="M4999 9746 c-127 -52 -181 -104 -199 -193 -23 -108 3 -212 64 -256
65 -46 206 -19 310 60 73 56 90 90 94 198 3 80 1 95 -20 134 -44 82 -138 103
-249 57z m50 -37 c43 -15 71 -72 78 -159 8 -92 -3 -154 -33 -190 -72 -85 -158
16 -158 184 0 90 19 146 57 164 12 6 22 11 23 11 1 1 15 -4 33 -10z"/>
<path d="M5423 9719 c-63 -20 -93 -35 -93 -45 0 -12 10 -15 43 -12 l42 3 -1
-70 c-1 -38 -11 -125 -23 -192 -11 -66 -21 -123 -21 -126 0 -7 111 13 130 23
12 7 21 31 28 82 6 40 16 110 23 156 11 81 13 84 46 100 33 16 36 16 75 -7 22
-12 41 -21 43 -19 1 2 14 27 29 56 l26 52 -25 10 c-44 17 -68 12 -122 -25
l-52 -35 -3 38 c-4 49 -25 51 -145 11z"/>
<path d="M3689 9512 c-95 -73 -122 -111 -127 -180 -2 -35 2 -84 12 -121 9 -34
16 -65 16 -67 0 -12 -97 -107 -122 -120 -50 -26 -86 -18 -133 29 -66 66 -109
209 -73 245 21 21 59 13 88 -18 15 -16 30 -30 33 -30 9 0 57 80 57 94 0 21
-49 56 -79 56 -50 0 -129 -65 -183 -149 -36 -58 -37 -115 -2 -211 l25 -70 -32
-45 c-26 -36 -35 -42 -50 -35 -21 12 -48 49 -78 107 -26 51 -26 60 -3 42 9 -8
2 3 -15 24 -37 42 -48 75 -39 112 6 24 5 25 -21 18 -16 -3 -37 -7 -48 -7 -11
-1 -22 -4 -25 -7 -3 -4 -24 -16 -48 -28 -45 -23 -92 -80 -143 -175 -39 -72
-37 -111 12 -216 l33 -73 -21 -36 c-31 -54 -63 -54 -117 1 -47 48 -242 376
-252 425 -6 29 -4 31 38 44 41 13 43 16 46 57 2 23 0 42 -3 42 -19 0 -86 -44
-103 -67 -24 -35 -72 -155 -72 -180 1 -29 30 -86 135 -263 108 -183 136 -217
199 -249 60 -30 86 -18 116 51 12 29 31 72 41 95 l18 42 41 -23 c23 -13 51
-21 61 -19 18 5 99 126 99 149 0 5 4 15 9 23 8 12 15 8 36 -17 44 -52 75 -45
125 28 22 33 50 81 60 106 l20 46 35 -31 c92 -80 199 -30 314 149 l39 60 16
-25 c9 -14 35 -34 58 -46 48 -24 105 -20 153 11 42 27 165 171 165 193 0 25
-12 21 -46 -14 -31 -33 -70 -57 -117 -70 -34 -10 -82 7 -111 39 -18 21 -18 22
34 79 111 121 136 192 85 247 -39 42 -81 36 -156 -22z m47 -40 c18 -12 34 -49
34 -79 -1 -31 -65 -127 -80 -118 -14 9 -30 74 -30 123 0 58 40 98 76 74z
m-822 -530 l49 -107 -19 -35 c-37 -69 -91 -39 -150 85 -33 68 -41 109 -26 131
12 18 45 33 72 33 22 0 31 -12 74 -107z"/>
<path d="M7150 9211 c-19 -4 -45 -13 -56 -19 -40 -21 -103 -103 -125 -161 -39
-105 -10 -178 90 -224 55 -24 189 -34 249 -18 80 22 158 118 182 225 14 63
-11 123 -67 160 -57 37 -184 55 -273 37z m180 -58 c31 -39 24 -108 -20 -196
-60 -122 -142 -170 -189 -111 -27 34 -27 87 -1 158 56 148 155 218 210 149z"/>
<path d="M4905 9094 c-863 -56 -1673 -383 -2335 -943 -100 -84 -377 -365 -465
-471 -460 -555 -754 -1196 -871 -1898 -42 -256 -62 -660 -44 -907 89 -1211
692 -2278 1685 -2983 463 -328 1046 -565 1625 -661 451 -75 973 -66 1415 24
378 76 678 180 1015 351 390 198 690 416 1026 746 l122 119 41 -48 c22 -27 56
-60 73 -72 18 -13 0 10 -41 52 l-74 76 60 68 c455 518 787 1211 904 1888 39
226 50 350 56 627 6 301 -1 420 -43 695 -234 1532 -1385 2810 -2889 3208 -343
91 -594 125 -955 129 -135 2 -272 2 -305 0z m1614 -1150 c182 -60 306 -194
339 -365 23 -116 23 -173 3 -319 -18 -126 -26 -155 -60 -225 -22 -44 -54 -125
-71 -180 -22 -75 -43 -118 -80 -170 -27 -38 -68 -100 -90 -137 -59 -98 -79
-111 -167 -106 -65 3 -73 1 -73 -15 0 -39 31 -88 76 -119 81 -57 258 -198 274
-219 9 -11 42 -27 75 -35 82 -21 146 -65 199 -135 84 -111 108 -221 86 -388
-11 -84 -11 -105 4 -168 34 -152 14 -278 -58 -349 -22 -22 -49 -45 -59 -50
-16 -9 -16 -13 -3 -51 8 -22 17 -65 21 -95 l7 -55 64 24 c112 40 211 62 355
78 77 8 170 20 207 25 93 13 92 13 92 -18 0 -15 7 -55 16 -87 9 -33 16 -66 17
-72 0 -7 3 -13 7 -13 13 0 62 -81 57 -94 -3 -7 -31 -26 -63 -43 -33 -17 -171
-106 -307 -197 -256 -172 -330 -215 -407 -237 -25 -7 -46 -13 -47 -14 -2 -1
-12 -48 -24 -106 -17 -86 -56 -240 -75 -298 -4 -12 -7 -12 -21 2 -18 18 -20 1
39 280 22 103 22 109 6 121 -23 17 -23 18 13 128 20 61 33 122 36 178 l6 85
-28 -25 -28 -25 6 45 c31 239 29 406 -3 445 -6 8 -47 34 -90 58 l-79 45 39
-52 c21 -28 52 -78 67 -111 26 -56 28 -69 28 -185 -1 -114 -4 -134 -34 -225
-19 -55 -36 -106 -39 -114 -4 -11 2 -13 28 -8 l33 7 -6 -77 c-5 -68 -12 -90
-56 -176 -28 -54 -51 -100 -51 -102 0 -2 6 -3 13 -1 58 19 67 17 67 -11 0 -36
-46 -201 -60 -218 -6 -8 -25 -17 -41 -20 l-30 -7 33 -37 c18 -20 49 -58 68
-83 19 -26 39 -48 44 -48 5 0 6 27 2 59 -7 59 2 83 22 58 5 -6 12 -39 14 -73
4 -54 21 -94 172 -400 219 -440 346 -701 346 -709 0 -3 -19 -5 -42 -3 l-42 3
-144 250 c-212 370 -292 501 -413 674 -132 188 -199 268 -101 121 60 -90 204
-353 437 -795 32 -60 75 -143 97 -183 l39 -72 -54 0 -55 0 -117 157 c-106 142
-203 262 -258 318 -28 28 -20 16 151 -238 83 -125 152 -230 152 -232 0 -3
-270 -4 -600 -2 l-601 2 -34 79 c-19 43 -65 133 -104 200 -131 226 -161 313
-161 456 0 72 8 111 50 260 28 96 50 177 50 179 0 11 71 -64 167 -176 100
-117 132 -150 101 -100 -67 105 -298 518 -298 533 0 10 9 34 20 52 17 28 25
33 48 28 15 -2 63 -8 107 -11 l80 -6 -35 21 c-19 12 -56 42 -81 67 -53 51 -53
52 -11 178 22 66 27 97 26 175 -1 83 -6 113 -43 230 -24 74 -72 209 -106 300
-41 106 -71 204 -85 275 -52 274 -65 316 -128 420 -20 33 -76 98 -123 145
l-87 86 29 16 c41 24 45 43 17 86 -36 54 -50 105 -52 185 l-1 71 48 -1 c46 -2
47 -2 41 25 -3 15 -10 40 -15 56 -8 27 -8 28 19 22 26 -5 26 -5 -5 11 -35 17
-46 49 -36 106 5 33 8 36 77 56 147 43 251 52 341 31 56 -13 56 -4 -1 22 -69
30 -174 35 -295 13 -55 -10 -102 -15 -106 -11 -4 4 -1 19 8 34 21 38 94 53
242 50 l119 -3 39 45 c54 61 78 110 104 207 20 74 21 84 7 95 -8 7 -24 33 -35
58 -23 51 -34 209 -20 275 8 35 13 40 40 43 30 3 30 5 37 67 24 232 144 393
353 471 132 50 278 53 412 8z m-1902 -408 c163 -43 281 -166 327 -341 9 -33
22 -134 28 -225 10 -130 14 -156 19 -120 21 129 0 355 -41 447 l-19 43 22 15
c54 38 144 -4 219 -101 23 -29 44 -52 46 -49 9 8 -39 96 -74 134 -58 65 -98
81 -197 81 -68 0 -89 4 -108 18 l-22 19 33 11 c137 48 316 -43 398 -203 36
-71 52 -139 52 -222 0 -106 -15 -165 -75 -288 -30 -60 -59 -130 -65 -154 -15
-56 -15 -214 0 -241 25 -46 -30 -4 -59 45 -9 16 -11 -16 -9 -145 4 -173 4
-176 66 -292 2 -3 -26 -9 -62 -13 -153 -17 -303 61 -362 189 -31 67 -38 117
-25 195 6 36 8 67 6 70 -11 10 -55 -45 -72 -88 -27 -69 -24 -203 5 -258 28
-54 96 -94 206 -123 223 -58 325 -112 408 -214 82 -102 116 -186 154 -377 18
-94 50 -216 70 -272 20 -56 69 -194 108 -307 l70 -205 1 -130 c0 -112 -3 -140
-25 -205 -55 -170 -184 -389 -412 -701 -75 -104 -128 -186 -128 -199 0 -13 14
-66 31 -118 51 -162 51 -338 -3 -477 -11 -27 -45 -89 -76 -137 l-57 -88 -579
0 -578 0 6 33 c7 37 66 191 99 257 l22 45 86 3 c58 2 101 -2 130 -12 24 -8 45
-14 47 -12 6 6 -98 66 -156 89 l-57 24 3 151 c1 84 6 180 11 215 5 34 8 63 6
65 -1 2 -14 -16 -28 -40 -14 -24 -34 -51 -45 -61 -19 -18 -20 -17 -32 15 -16
42 -24 250 -12 303 l9 40 12 -59 c7 -32 19 -75 27 -95 8 -20 12 -25 9 -11 -4
14 -8 84 -11 155 -6 141 -11 113 70 340 13 36 -37 -34 -92 -129 -29 -50 -59
-115 -67 -143 -8 -29 -22 -78 -31 -109 -12 -43 -18 -53 -28 -45 -18 15 -35 76
-47 171 -5 45 -18 103 -28 129 -22 55 -36 135 -27 150 10 16 52 -15 65 -47 5
-15 13 -45 17 -67 6 -32 9 -36 15 -20 17 43 8 68 -43 129 -93 110 -157 283
-145 388 6 46 5 48 -18 48 -32 0 -65 51 -122 189 -24 58 -49 111 -55 118 -6 7
-37 27 -70 45 -124 66 -172 160 -148 296 19 113 50 162 194 307 72 72 163 164
201 205 l70 74 -60 -53 c-56 -50 -60 -53 -63 -31 -5 32 35 136 76 198 37 56
87 96 136 108 29 7 29 6 23 -27 l-7 -34 23 40 c14 24 31 41 45 43 19 3 21 0
17 -30 l-5 -33 15 32 c17 36 42 53 79 53 32 0 33 -11 1 -57 -13 -20 -22 -39
-20 -41 7 -7 85 47 118 82 51 54 89 149 93 229 l3 72 -13 -86 c-24 -152 -36
-162 -205 -170 -155 -8 -203 -24 -277 -92 -69 -63 -97 -118 -119 -232 -9 -50
-24 -105 -32 -124 -10 -20 -63 -71 -137 -132 -170 -137 -214 -218 -204 -367 9
-124 63 -202 177 -256 60 -29 60 -29 81 -98 11 -37 59 -159 106 -270 119 -282
152 -385 169 -527 18 -150 27 -185 141 -530 52 -156 94 -301 94 -320 0 -36 -8
-57 -88 -241 -22 -52 -49 -126 -59 -165 -15 -58 -22 -71 -41 -73 -12 -2 -22 0
-22 5 0 41 52 205 102 323 70 164 72 185 33 281 -14 35 -46 134 -71 219 -24
85 -60 196 -79 245 -42 109 -52 159 -64 296 -7 80 -19 135 -50 227 -41 124
-107 272 -121 272 -9 0 -53 -67 -111 -163 -47 -81 -185 -213 -237 -226 -97
-27 -307 59 -487 198 -69 53 -311 231 -469 344 -7 5 1 17 24 34 19 15 59 51
87 80 38 38 58 51 70 46 16 -6 16 -5 4 10 -12 15 -11 17 2 17 25 0 214 -70
432 -160 139 -57 204 -79 214 -73 25 16 72 110 112 225 l40 111 -22 45 c-31
62 -37 170 -14 248 32 111 72 159 235 288 47 37 94 75 106 84 14 12 23 35 28
72 20 155 74 269 153 323 79 54 139 69 375 93 l57 5 22 57 c31 83 29 169 -6
252 -15 36 -48 124 -74 195 -45 128 -46 132 -44 245 1 95 -4 138 -28 249 -65
289 -32 404 139 490 64 32 138 57 203 70 72 14 278 12 336 -3z m3820 -1991
c341 -108 504 -507 337 -825 -46 -88 -112 -164 -129 -150 -10 8 -13 6 -11 -7
2 -25 -104 -94 -188 -121 -150 -49 -302 -37 -453 38 -345 170 -420 645 -144
919 116 115 246 169 413 170 77 1 113 -4 175 -24z m-6324 -127 c300 -143 369
-522 137 -759 -86 -87 -181 -130 -303 -136 l-92 -5 -65 67 c-36 38 -57 65 -47
62 86 -31 136 -39 196 -34 179 15 302 120 347 298 44 170 -46 349 -214 427
-50 24 -69 27 -157 27 -93 0 -105 -2 -167 -33 -78 -38 -138 -100 -177 -182
-23 -48 -26 -68 -26 -160 0 -92 3 -112 26 -161 26 -54 87 -126 139 -162 14
-10 18 -15 10 -11 -8 4 14 -24 50 -61 65 -67 65 -68 32 -61 -119 22 -250 128
-307 248 -128 273 1 569 290 664 25 9 78 13 145 11 98 -2 110 -5 183 -39z
m-35 -118 c70 -37 120 -89 154 -159 18 -35 24 -68 26 -138 4 -82 1 -97 -23
-152 -33 -72 -112 -151 -182 -183 -74 -33 -210 -31 -283 3 -70 33 -132 95
-167 167 -25 51 -28 67 -28 162 0 90 3 111 23 147 69 130 186 196 337 190 68
-3 89 -8 143 -37z"/>
<path d="M6183 7916 c-82 -19 -193 -78 -258 -138 -53 -48 -97 -127 -109 -198
-6 -32 -5 -31 12 11 61 149 184 249 349 284 132 28 272 10 402 -52 123 -58
182 -132 227 -283 14 -44 23 -64 23 -49 1 44 -36 150 -74 214 -68 114 -140
168 -262 200 -86 22 -236 28 -310 11z"/>
<path d="M5801 7524 c0 -11 3 -14 6 -6 3 7 2 16 -1 19 -3 4 -6 -2 -5 -13z"/>
<path d="M6785 7171 c-17 -58 -58 -110 -95 -123 -8 -2 -8 -11 -1 -31 6 -16 11
-47 12 -70 0 -40 1 -40 17 24 10 37 30 85 45 107 27 41 52 121 45 143 -2 6
-12 -16 -23 -50z"/>
<path d="M6672 6851 c-12 -28 -48 -81 -78 -118 -31 -37 -74 -98 -95 -135 -28
-48 -51 -74 -77 -88 -21 -10 -30 -19 -20 -20 39 -1 67 21 98 76 18 32 59 89
93 128 60 70 111 163 105 191 -2 9 -13 -7 -26 -34z"/>
<path d="M6281 6316 c2 -2 47 -32 99 -67 61 -40 134 -102 203 -172 73 -74 118
-112 141 -118 107 -29 224 -200 242 -352 6 -54 -9 -127 -26 -127 -4 0 -29 48
-55 108 -46 106 -117 236 -135 247 -5 3 11 -41 36 -97 128 -291 168 -491 119
-588 -25 -49 -52 -63 -128 -69 l-72 -6 72 -24 c80 -26 129 -23 157 8 41 46 59
191 35 287 -10 39 -9 51 11 97 15 35 24 80 27 138 12 209 -107 397 -274 433
-20 5 -65 37 -120 87 -89 81 -188 155 -245 185 -30 15 -95 38 -87 30z"/>
<path d="M6385 5755 c88 -220 98 -399 27 -471 -56 -56 -204 -104 -387 -125
-241 -27 -234 -24 -100 -34 334 -22 531 27 580 146 23 57 23 174 1 259 -17 67
-110 265 -146 310 -13 16 -4 -13 25 -85z"/>
<path d="M7423 4823 c9 -2 23 -2 30 0 6 3 -1 5 -18 5 -16 0 -22 -2 -12 -5z"/>
<path d="M7198 4800 c-115 -21 -222 -55 -238 -76 -16 -18 -2 -18 46 2 21 9
120 33 219 54 146 31 170 38 125 38 -30 0 -99 -8 -152 -18z"/>
<path d="M6620 4734 c0 -109 -21 -164 -90 -238 l-59 -63 30 -29 c60 -57 98
-176 100 -313 1 -52 3 -59 9 -36 22 86 4 229 -39 313 l-19 38 34 55 c47 77 68
164 59 248 -10 97 -25 112 -25 25z"/>
<path d="M7225 4713 c-16 -2 -82 -15 -145 -29 -125 -27 -150 -43 -150 -95 0
-16 2 -29 4 -29 3 0 39 19 82 42 42 22 120 58 173 79 53 21 89 38 81 37 -8 0
-28 -3 -45 -5z"/>
<path d="M6490 2725 c19 -19 36 -35 39 -35 3 0 -10 16 -29 35 -19 19 -36 35
-39 35 -3 0 10 -16 29 -35z"/>
<path d="M6565 2620 c22 -25 41 -47 43 -49 1 -2 4 -2 7 0 2 3 -17 25 -43 50
l-47 44 40 -45z"/>
<path d="M6775 2540 c10 -11 20 -20 23 -20 3 0 -3 9 -13 20 -10 11 -20 20 -23
20 -3 0 3 -9 13 -20z"/>
<path d="M4308 7510 c-15 -4 -42 -17 -60 -28 -18 -11 -58 -25 -88 -32 -70 -16
-98 -30 -136 -72 -44 -46 -64 -90 -70 -151 l-5 -52 29 60 c37 76 79 115 167
157 83 39 186 48 273 25 28 -8 52 -12 52 -10 0 2 -21 13 -47 26 -72 34 -67 47
17 47 111 0 281 -63 375 -139 12 -9 -2 5 -30 31 -57 54 -154 109 -234 132 -58
17 -196 20 -243 6z"/>
<path d="M3986 7026 c-5 -27 -5 -81 -1 -120 5 -39 9 -114 10 -166 3 -188 101
-436 190 -482 17 -9 17 -8 -2 11 -30 28 -49 66 -117 233 -59 143 -64 174 -46
268 7 39 6 76 -5 144 -8 50 -16 107 -18 126 -3 33 -3 33 -11 -14z"/>
<path d="M4659 5972 c13 -24 40 -47 81 -67 19 -10 36 -19 38 -20 5 -4 -27 -65
-55 -105 -17 -25 -13 -22 14 9 78 91 77 90 99 81 l22 -8 -23 -49 c-13 -26 -26
-61 -29 -78 l-6 -30 16 30 c29 53 85 115 104 115 10 0 46 -9 81 -20 66 -20
116 -49 191 -110 l43 -35 -22 30 c-57 81 -152 132 -342 184 -111 31 -184 61
-196 81 -11 18 -26 11 -16 -8z"/>
<path d="M4145 5606 c-11 -8 -87 -56 -170 -109 -191 -122 -264 -187 -307 -275
-29 -59 -33 -76 -33 -147 0 -44 6 -89 12 -99 9 -16 12 -11 17 35 24 186 38
209 243 377 199 162 314 268 238 218z"/>
<path d="M4843 5042 c-12 -37 -59 -148 -106 -247 -158 -336 -202 -490 -195
-670 5 -116 16 -143 101 -249 31 -39 54 -73 52 -76 -2 -3 -42 -30 -89 -58 -47
-29 -86 -55 -86 -57 0 -2 26 5 58 16 31 11 82 26 113 33 l57 14 45 -47 c49
-50 67 -80 67 -108 0 -10 -20 -63 -45 -118 -25 -55 -45 -102 -45 -105 2 -23
148 297 212 465 49 128 100 231 185 372 23 39 43 79 43 88 0 8 -25 62 -54 118
-56 103 -144 315 -231 552 -27 72 -51 133 -54 137 -3 3 -16 -24 -28 -60z"/>
<path d="M3660 4735 c0 -20 74 -120 146 -194 52 -54 71 -69 67 -52 -3 13 -40
60 -82 105 -42 45 -88 97 -103 116 -15 19 -27 30 -28 25z"/>
<path d="M2450 4636 c0 -12 166 -89 328 -152 92 -36 209 -87 261 -114 103 -55
103 -40 -2 27 -87 57 -141 81 -367 163 -102 37 -193 71 -202 75 -10 4 -18 4
-18 1z"/>
<path d="M4730 2817 c0 -2 15 -16 33 -33 l32 -29 -29 33 c-28 30 -36 37 -36
29z"/>
<path d="M8141 5444 c-164 -44 -304 -186 -340 -345 -35 -150 17 -327 130 -440
186 -186 496 -182 671 10 47 52 108 158 108 189 0 7 3 11 8 9 4 -3 9 39 10 93
6 154 -26 244 -122 348 -117 126 -302 180 -465 136z m302 -67 c96 -45 168
-116 211 -207 25 -55 31 -80 34 -160 l4 -95 -46 45 c-25 24 -46 40 -46 34 0
-5 18 -28 41 -49 36 -36 40 -44 34 -74 -19 -101 -113 -212 -223 -264 -64 -31
-72 -32 -192 -32 -120 0 -128 1 -192 32 -297 140 -318 571 -36 749 73 47 145
65 243 61 80 -2 100 -7 168 -40z"/>
<path d="M8248 5369 l43 -46 -58 -5 c-84 -8 -154 -41 -208 -99 -68 -72 -88
-126 -89 -229 0 -102 23 -160 94 -230 71 -71 128 -95 230 -95 76 0 93 4 152
33 98 48 150 120 172 241 10 56 10 75 -4 127 -21 76 -59 143 -102 179 -37 31
-110 65 -139 65 -11 0 -46 23 -77 52 -54 50 -55 50 -14 7z m81 -95 c17 -4 29
-10 26 -14 -2 -4 10 -20 28 -36 31 -28 31 -28 8 -2 -54 62 8 41 77 -25 73 -71
102 -201 70 -309 -16 -55 -79 -122 -145 -154 -48 -24 -69 -28 -137 -28 -67 0
-90 5 -131 26 -103 54 -150 136 -150 263 1 70 4 87 30 134 61 110 195 171 324
145z"/>
<path d="M8400 4805 c19 -19 36 -35 39 -35 3 0 -10 16 -29 35 -19 19 -36 35
-39 35 -3 0 10 -16 29 -35z"/>
<path d="M8683 4757 c0 -9 15 -31 34 -49 18 -17 33 -26 33 -20 0 7 -15 29 -33
49 -23 24 -34 31 -34 20z m32 -27 c10 -11 16 -20 13 -20 -3 0 -13 9 -23 20
-10 11 -16 20 -13 20 3 0 13 -9 23 -20z"/>
<path d="M7566 8981 c-4 -6 8 -18 28 -28 21 -10 36 -24 36 -34 0 -19 -39 -71
-155 -205 -41 -48 -75 -91 -75 -95 0 -7 68 -34 110 -44 23 -5 36 6 124 114 54
67 106 122 115 122 38 3 57 -4 79 -27 12 -14 22 -32 22 -40 0 -21 10 -18 69
19 l52 33 -30 33 c-30 32 -33 33 -101 29 -38 -2 -70 -2 -70 0 0 1 7 14 16 27
9 14 14 31 11 39 -11 28 -218 79 -231 57z"/>
<path d="M8152 8852 c-21 -3 -131 -105 -425 -392 l-49 -47 66 -28 65 -28 63
57 c35 31 66 56 69 56 3 0 13 -6 22 -12 15 -12 14 -22 -9 -127 -13 -62 -22
-121 -19 -131 4 -14 27 -22 93 -34 48 -9 98 -16 111 -16 18 0 22 -4 16 -17
-16 -40 -17 -110 -2 -140 54 -103 262 -191 359 -153 56 23 130 82 159 129 66
103 15 202 -140 275 -78 36 -160 45 -211 24 -19 -9 -57 -32 -84 -52 -51 -40
-75 -42 -123 -10 -20 12 -23 23 -23 72 0 31 5 74 10 94 l11 37 64 -1 c59 -2
67 0 95 27 37 36 41 82 8 112 -26 24 -116 53 -163 53 -17 0 -34 3 -37 6 -9 8
159 163 197 181 42 20 60 13 87 -33 16 -28 25 -34 42 -30 12 3 31 6 44 6 31 0
28 12 -17 57 -33 34 -48 42 -102 51 -79 14 -147 19 -177 14z m-24 -293 c56
-19 51 -77 -8 -97 -22 -8 -42 -7 -77 3 -80 25 -83 29 -43 70 37 38 70 44 128
24z m427 -374 c33 -32 32 -70 -4 -126 -46 -73 -165 -159 -219 -159 -29 0 -72
42 -72 71 0 64 91 173 182 218 56 27 83 27 113 -4z"/>
<path d="M2061 8778 c-38 -19 -126 -94 -318 -275 -29 -27 -53 -57 -53 -66 0
-23 10 -21 50 8 27 20 36 22 48 13 22 -19 322 -394 322 -403 0 -4 -11 -23 -25
-41 -14 -18 -25 -42 -25 -54 0 -21 1 -21 33 5 155 131 274 261 254 282 -2 2
-29 -17 -60 -42 l-55 -45 -49 58 c-154 180 -295 363 -289 377 8 21 95 75 120
75 57 0 133 -85 143 -160 5 -34 0 -49 -26 -91 -17 -28 -31 -52 -31 -55 0 -30
125 85 153 141 38 78 27 157 -31 226 -31 36 -83 69 -109 69 -4 0 -28 -10 -52
-22z"/>
<path d="M1335 7998 c-3 -7 -13 -38 -24 -68 l-19 -55 57 -51 56 -51 -22 -41
c-13 -22 -23 -52 -23 -67 0 -25 2 -24 40 24 l41 51 70 -60 c99 -85 139 -110
196 -119 72 -11 90 0 104 68 14 69 17 200 5 201 -6 1 -16 -18 -22 -41 -15 -49
-27 -59 -75 -59 -37 0 -88 29 -164 94 l-39 33 27 36 c27 35 37 87 17 87 -6 0
-23 -20 -38 -45 -26 -43 -45 -55 -56 -36 -3 5 -33 32 -66 61 -41 36 -61 48
-65 38z"/>
<path d="M8735 7941 c-3 -5 4 -26 16 -46 27 -46 22 -52 -106 -125 -103 -58
-168 -120 -163 -155 2 -15 33 -35 114 -75 l112 -56 -34 -37 c-42 -46 -43 -69
-3 -98 38 -27 177 -89 201 -89 32 0 27 18 -12 44 -22 14 -40 33 -40 40 0 31
54 75 169 141 67 37 121 71 121 76 0 4 -23 28 -51 53 l-51 46 -32 -19 c-165
-101 -221 -128 -250 -120 -39 11 -66 37 -66 65 0 31 43 65 171 132 75 39 109
62 109 75 0 10 -33 41 -81 77 -98 73 -116 83 -124 71z"/>
<path d="M1237 7622 c-45 -28 -71 -93 -63 -160 9 -77 38 -137 78 -162 56 -34
83 -28 174 41 74 57 124 50 124 -16 0 -64 -62 -103 -142 -90 -38 7 -41 6 -35
-14 3 -11 1 -21 -4 -21 -5 0 -9 -29 -9 -65 0 -111 -44 -175 -121 -175 l-37 0
-7 68 c-3 37 -11 92 -17 122 -23 122 -142 164 -184 65 -19 -47 -19 -216 1
-255 20 -39 90 -94 159 -126 47 -22 68 -26 117 -22 64 5 97 26 126 82 15 29
20 161 7 211 -5 20 -1 23 40 27 98 11 141 75 141 208 -1 98 -17 139 -68 171
-42 26 -89 19 -136 -21 -20 -16 -55 -41 -77 -55 -36 -22 -45 -24 -68 -14 -28
13 -34 45 -16 78 10 20 78 51 110 51 26 0 25 3 -6 50 -29 44 -45 48 -87 22z
m-116 -498 c18 -16 39 -85 39 -129 l0 -25 -49 24 c-53 28 -101 77 -101 106 0
10 7 26 17 35 19 20 66 14 94 -11z"/>
<path d="M9080 7416 c0 -3 11 -30 24 -61 14 -30 22 -56 18 -58 -4 -3 -25 -10
-47 -17 -143 -46 -265 -135 -265 -194 0 -25 41 -63 140 -129 47 -32 90 -47 90
-33 0 2 -16 20 -35 39 -63 63 -40 112 81 169 45 21 88 38 96 38 8 0 23 -16 34
-36 10 -20 31 -42 47 -50 33 -18 33 -16 2 46 -14 27 -25 54 -25 59 0 5 37 22
83 37 45 14 84 28 86 30 2 1 -18 28 -44 58 l-48 55 -68 -25 c-38 -14 -74 -22
-79 -19 -6 4 -17 19 -25 34 -12 24 -65 70 -65 57z"/>
<path d="M8986 6886 c-8 -13 -21 -39 -30 -60 l-15 -36 49 -25 c27 -14 56 -25
64 -25 18 0 79 101 68 111 -4 3 -33 18 -64 32 l-57 25 -15 -22z"/>
<path d="M675 6806 c-26 -28 -45 -73 -102 -248 -62 -191 -76 -258 -53 -258 4
0 15 19 25 43 11 23 20 44 21 45 5 7 81 -21 254 -96 261 -111 250 -105 239
-146 -6 -22 -6 -43 2 -62 10 -27 14 -21 66 121 115 310 115 312 111 385 -3 55
-9 74 -32 105 -51 66 -153 95 -206 58 -31 -21 -48 -43 -82 -107 l-27 -51 -1
59 c0 109 -60 186 -145 186 -30 0 -44 -7 -70 -34z m128 -140 c36 -24 61 -94
53 -148 -11 -75 -12 -75 -122 -27 -55 23 -104 46 -110 51 -18 14 4 84 38 120
25 27 33 30 71 26 24 -3 55 -13 70 -22z m295 -76 c42 -26 72 -76 72 -122 0
-30 -30 -122 -45 -137 -8 -7 -237 92 -241 104 -9 23 37 124 67 150 38 31 100
34 147 5z"/>
<path d="M9098 6613 c-29 -36 -49 -75 -44 -88 2 -7 25 -26 51 -40 52 -31 57
-29 107 39 l28 39 -53 33 c-60 39 -69 40 -89 17z"/>
<path d="M9177 6328 c-52 -70 -52 -72 6 -112 l52 -37 43 45 c23 25 42 49 42
55 0 10 -98 81 -112 81 -4 0 -18 -15 -31 -32z"/>
<path d="M9721 4171 c242 -260 277 -296 284 -289 3 3 -87 100 -200 215 -159
159 -178 177 -84 74z"/>
<path d="M9547 3805 c67 -71 145 -152 174 -180 29 -27 -2 9 -68 80 -67 72
-145 153 -174 180 -29 28 2 -8 68 -80z"/>
<path d="M9330 3725 c13 -14 26 -25 28 -25 3 0 -5 11 -18 25 -13 14 -26 25
-28 25 -3 0 5 -11 18 -25z"/>
<path d="M8512 2015 c123 -132 241 -258 262 -280 l38 -40 -38 54 c-22 30 -140
156 -263 280 l-224 226 225 -240z"/>
<path d="M8140 2186 c0 -2 8 -10 18 -17 15 -13 16 -12 3 4 -13 16 -21 21 -21
13z"/>
<path d="M8765 1680 c38 -38 72 -70 74 -70 3 0 -26 32 -64 70 -38 39 -72 70
-74 70 -3 0 26 -31 64 -70z"/>
<path d="M8575 1600 c33 -33 62 -60 64 -60 3 0 -21 27 -54 60 -33 33 -62 60
-64 60 -3 0 21 -27 54 -60z"/>
<path d="M2898 1532 l-47 -57 130 -66 c197 -100 209 -122 81 -154 -37 -9 -73
-19 -80 -21 -9 -2 -4 -19 17 -56 51 -91 58 -178 14 -178 -10 0 -46 13 -79 29
l-61 29 79 156 79 156 -75 37 c-42 20 -77 35 -80 33 -9 -11 -216 -418 -216
-426 0 -6 81 -50 179 -98 160 -79 186 -89 234 -89 41 0 63 6 86 22 67 48 90
153 52 237 l-19 42 30 6 c45 9 84 41 107 89 41 85 18 154 -73 212 -56 35 -291
155 -303 154 -5 0 -29 -26 -55 -57z"/>
<path d="M7105 1479 c-93 -50 -174 -94 -178 -98 -8 -8 277 -566 294 -577 5 -2
32 8 61 24 29 16 112 59 184 96 l131 68 -15 66 c-8 37 -18 71 -22 75 -4 5 -60
-19 -123 -52 -64 -34 -120 -61 -124 -61 -5 0 -19 20 -31 45 l-21 44 82 42 c45
22 85 44 89 48 8 7 -19 132 -32 144 -4 5 -50 -14 -102 -42 -52 -28 -97 -51
-101 -51 -9 0 -49 69 -44 77 3 5 55 33 116 63 61 30 111 57 111 60 -1 3 -24
31 -53 62 l-52 56 -170 -89z"/>
<path d="M3453 1237 c-154 -162 -217 -300 -192 -420 9 -43 21 -61 63 -102 44
-44 70 -58 198 -108 80 -31 151 -57 156 -57 5 0 49 101 98 225 88 222 89 224
96 182 4 -23 37 -99 73 -169 36 -69 65 -133 65 -142 0 -10 -9 -16 -22 -16 -21
0 -128 23 -172 36 -17 6 -18 1 -14 -69 2 -42 6 -79 10 -82 3 -4 59 -20 123
-36 137 -34 166 -32 224 18 80 68 74 131 -27 313 -32 58 -61 113 -65 122 -11
31 22 37 103 17 96 -23 100 -23 100 2 0 13 4 18 13 13 9 -6 9 -5 0 7 -6 8 -13
37 -15 64 l-3 50 -90 22 c-125 30 -192 30 -239 -2 -20 -13 -36 -23 -36 -21 0
2 7 20 15 40 8 20 14 36 13 36 -2 0 -36 14 -77 30 -41 17 -78 27 -81 23 -4 -4
-47 -107 -94 -228 -48 -121 -91 -224 -95 -228 -12 -12 -96 28 -119 58 -53 67
-8 167 145 326 l103 106 -81 31 c-44 18 -86 32 -93 32 -8 0 -45 -33 -83 -73z"/>
<path d="M7758 1180 c41 -46 42 -63 0 -24 -18 16 4 -11 49 -61 45 -49 101
-108 124 -130 l43 -40 -44 50 c-24 28 -53 56 -63 64 -10 7 -16 18 -14 25 3 7
-25 44 -62 82 -36 39 -51 54 -33 34z m68 -82 l29 -33 -32 29 c-18 17 -33 31
-33 33 0 8 8 1 36 -29z"/>
<path d="M7910 1105 c13 -14 26 -25 28 -25 3 0 -5 11 -18 25 -13 14 -26 25
-28 25 -3 0 5 -11 18 -25z"/>
<path d="M4280 1066 c0 -3 11 -35 25 -72 21 -55 22 -64 8 -53 -12 10 -11 6 3
-13 12 -15 41 -82 64 -149 l43 -121 -14 -107 c-15 -118 -18 -245 -6 -258 5 -4
43 10 85 32 l76 40 13 120 c15 137 18 149 35 139 10 -5 10 -4 1 6 -10 10 -8
19 9 43 l21 29 106 -104 106 -103 -104 107 -104 106 30 44 c16 23 60 87 97
141 37 54 66 100 64 102 -7 7 -179 27 -192 22 -8 -3 -33 -40 -56 -81 -23 -42
-45 -74 -49 -72 -4 3 -18 40 -31 83 -13 43 -30 83 -37 89 -8 7 -44 15 -81 19
-37 3 -77 9 -89 12 -13 3 -23 3 -23 -1z"/>
<path d="M7965 1050 c10 -11 20 -20 23 -20 3 0 -3 9 -13 20 -10 11 -20 20 -23
20 -3 0 3 -9 13 -20z"/>
<path d="M4850 365 c30 -30 57 -55 59 -55 3 0 -19 25 -49 55 -30 30 -57 55
-59 55 -3 0 19 -25 49 -55z"/>
<path d="M6140 366 c0 -2 8 -10 18 -17 15 -13 16 -12 3 4 -13 16 -21 21 -21
13z"/>
</g>
</svg>
